<?xml version="1.0" encoding="UTF-8"?>
<svg width="30px" height="30px" viewBox="0 0 30 30" version="1.1" xmlns="http://www.w3.org/2000/svg" xmlns:xlink="http://www.w3.org/1999/xlink">
    <!-- Generator: Sketch 43.2 (39069) - http://www.bohemiancoding.com/sketch -->
    <title>drib-w</title>
    <desc>Created with Sketch.</desc>
    <defs></defs>
    <g id="Page-1" stroke="none" stroke-width="1" fill="none" fill-rule="evenodd">
        <g id="Artboard-2" transform="translate(-400.000000, -248.000000)" fill-rule="nonzero" fill="#848484">
            <g id="Group-2" transform="translate(400.000000, 142.000000)">
                <g id="Group" transform="translate(0.000000, 106.000000)">
                    <g id="drib-w">
                        <path d="M14.9686775,0 C6.7012065,0.000626450116 0,6.70225058 0,14.9699304 C0,23.2361485 6.7012065,29.9385383 14.9686775,29.9385383 C23.2361485,29.9385383 29.9376334,23.2361485 29.9385383,14.9699304 C29.9376334,6.70225058 23.2361485,0.000626450116 14.9686775,0 Z M24.1405336,7.76143852 C25.6010673,9.61607889 26.5155452,11.9125754 26.6308817,14.420464 C24.9409977,14.0617865 23.3443155,13.8872158 21.8558005,13.8872158 L21.8558005,13.8868677 L21.8448028,13.8868677 C20.6464037,13.8868677 19.5217169,13.9956613 18.4616937,14.1836659 C18.2040835,13.5522738 17.9429234,12.9458005 17.6798144,12.364942 C20.0405568,11.3294896 22.3064965,9.85510441 24.1405336,7.76143852 L24.1405336,7.76143852 Z M14.9686775,3.29095128 C17.7233875,3.29095128 20.2504872,4.25401392 22.2512297,5.85730858 C20.7201856,7.69030162 18.6993271,9.01781903 16.5162181,9.95519722 C14.9822506,6.98895592 13.5,4.86696056 12.4867517,3.56965197 C13.2888167,3.39167053 14.1167053,3.29095128 14.9686775,3.29095128 L14.9686775,3.29095128 Z M9.81027842,4.50835267 C10.6209049,5.46584687 12.2438979,7.57190255 13.977355,10.8600696 C10.4519026,11.9095128 6.90187935,12.1560557 4.75392111,12.1554292 C4.69266821,12.1554292 4.63211137,12.1554292 4.57266821,12.1548028 L4.57071926,12.1548028 C4.20897912,12.1548028 3.89791183,12.1490951 3.63821346,12.1411601 C4.4761949,8.78798144 6.77338747,6.01092807 9.81027842,4.50835267 Z M3.2899768,14.9699304 C3.2899768,14.9150116 3.29192575,14.8591879 3.29519722,14.8016937 C3.62867749,14.8140139 4.05633411,14.824594 4.57106729,14.824594 L4.57399072,14.824594 C6.92157773,14.8092807 11.0204408,14.6131323 15.1743619,13.3016937 C15.4007889,13.7967981 15.6249188,14.312297 15.8464733,14.8474942 C13.0724826,15.7752668 10.887703,17.2533411 9.27174014,18.72529 C7.71605568,20.1422506 6.6650116,21.5457077 6.05088167,22.4825986 C4.33238979,20.4479582 3.29088167,17.8332251 3.2899768,14.9699304 L3.2899768,14.9699304 Z M14.9686775,26.6491183 C12.3696752,26.6491183 9.97419954,25.7895592 8.03088167,24.3472622 C8.44392111,23.667007 9.32951276,22.3610673 10.7397216,21.0116241 C12.1906497,19.6212529 14.1935499,18.1899536 16.8086311,17.3381903 C17.6974942,19.8298608 18.5017865,22.6781903 19.1144548,25.8844316 C17.8237587,26.3759165 16.4291415,26.6491183 14.9686775,26.6491183 L14.9686775,26.6491183 Z M21.5784919,24.57529 C20.9859397,21.6755916 20.2410209,19.0608585 19.4230858,16.7274014 C20.1815777,16.6186079 20.9777958,16.5572158 21.8182135,16.5572158 L21.8523202,16.5572158 C23.2452668,16.5572158 24.7759629,16.7303248 26.4359861,17.1075174 C25.8613225,20.1955684 24.0726682,22.8551276 21.5784919,24.57529 L21.5784919,24.57529 Z" id="Dribbble"></path>
                    </g>
                </g>
            </g>
        </g>
    </g>
</svg>