<?xml version="1.0" encoding="UTF-8"?>
<svg width="30px" height="30px" viewBox="0 0 30 30" version="1.1" xmlns="http://www.w3.org/2000/svg" xmlns:xlink="http://www.w3.org/1999/xlink">
    <!-- Generator: Sketch 43.2 (39069) - http://www.bohemiancoding.com/sketch -->
    <title>insta-w</title>
    <desc>Created with Sketch.</desc>
    <defs></defs>
    <g id="Page-1" stroke="none" stroke-width="1" fill="none" fill-rule="evenodd">
        <g id="Artboard-2" transform="translate(-455.000000, -248.000000)" fill-rule="nonzero" fill="#848484">
            <g id="Group-2" transform="translate(400.000000, 142.000000)">
                <g id="Group" transform="translate(0.000000, 106.000000)">
                    <g id="insta-w" transform="translate(55.000000, 0.000000)">
                        <circle id="Oval" cx="22.4670139" cy="7.5329861" r="1.66909722"></circle>
                        <path d="M15,7.26944445 C10.6954861,7.26944445 7.26944445,10.6954861 7.26944445,15 C7.26944445,19.3045139 10.6954861,22.7305556 15,22.7305556 C19.3045139,22.7305556 22.7305556,19.3045139 22.7305556,15 C22.7305556,10.6954861 19.3045139,7.26944445 15,7.26944445 L15,7.26944445 Z M15,19.2166667 C12.7159722,19.2166667 10.7833333,17.2840278 10.7833333,15 C10.7833333,12.7159722 12.7159722,10.7833333 15,10.7833333 C17.2840278,10.7833333 19.2166667,12.7159722 19.2166667,15 C19.2166667,17.2840278 17.2840278,19.2166667 15,19.2166667 L15,19.2166667 Z" id="Shape"></path>
                        <path d="M29.1434028,5.68819444 C28.7041667,4.54618054 28.0892361,3.57986112 27.2107639,2.78923611 C26.3322917,1.99861111 25.4538195,1.29583333 24.3118056,0.856597221 C23.1697917,0.417361111 22.0277778,0.153819444 20.534375,0.153819444 C19.0409722,0.0659722221 18.6017361,0.0659722221 15,0.0659722221 C11.3982639,0.0659722221 10.9590278,0.0659722221 9.46562501,0.153819444 C7.97222222,0.241666667 6.83020833,0.417361111 5.68819444,0.856597221 C4.54618054,1.29583333 3.57986112,1.91076389 2.78923611,2.78923611 C1.99861111,3.66770834 1.29583333,4.54618054 0.856597221,5.68819444 C0.417361111,6.83020833 0.153819444,7.97222222 0.153819444,9.46562501 C0.0659722221,10.9590278 0.0659722221,11.3982639 0.0659722221,15 C0.0659722221,18.6017361 0.0659722221,19.0409722 0.153819444,20.534375 C0.241666667,22.0277778 0.417361111,23.1697917 0.856597221,24.3118056 C1.29583333,25.4538195 1.91076389,26.4201389 2.78923611,27.2107639 C3.66770834,28.0013889 4.54618054,28.7041667 5.68819444,29.1434028 C6.83020833,29.5826389 7.97222222,29.8461805 9.46562501,29.8461805 C10.9590278,29.9340279 11.3982639,29.9340279 15,29.9340279 C18.6017361,29.9340279 19.0409722,29.9340279 20.534375,29.8461805 C22.0277778,29.7583334 23.1697917,29.5826389 24.3118056,29.1434028 C25.4538195,28.7041667 26.4201389,28.0892361 27.2107639,27.2107639 C28.0013889,26.3322917 28.7041667,25.4538195 29.1434028,24.3118056 C29.5826389,23.1697917 29.8461805,22.0277778 29.8461805,20.534375 C29.9340279,19.0409722 29.9340279,18.6017361 29.9340279,15 C29.9340279,11.3982639 29.9340279,10.9590278 29.8461805,9.46562501 C29.7583334,7.97222222 29.5826389,6.83020833 29.1434028,5.68819444 L29.1434028,5.68819444 Z M26.3322917,20.3586806 C26.2444444,21.7642361 26.06875,22.4670139 25.8052083,22.9940972 C25.5416667,23.696875 25.1902778,24.2239583 24.6631944,24.7510417 C24.1361111,25.278125 23.6090278,25.6295139 22.90625,25.8930555 C22.3791667,26.06875 21.6763889,26.3322917 20.2708333,26.4201389 L15,26.4201389 C11.4861111,26.4201389 11.046875,26.4201389 9.64131945,26.3322917 C8.2357639,26.2444444 7.5329861,26.06875 7.00590279,25.8052083 C6.30312499,25.5416667 5.77604165,25.1902778 5.24895835,24.6631944 C4.72187501,24.1361111 4.37048611,23.6090278 4.10694446,22.90625 C3.93124999,22.3791667 3.66770834,21.6763889 3.57986112,20.2708333 L3.57986112,15 C3.57986112,11.4861111 3.57986112,11.046875 3.66770834,9.64131945 C3.75555555,8.2357639 3.93124999,7.5329861 4.19479167,7.00590279 C4.45833333,6.30312499 4.80972223,5.77604165 5.33680556,5.24895835 C5.8638889,4.72187501 6.39097221,4.37048611 7.09375001,4.10694446 C7.62083335,3.93124999 8.32361112,3.66770834 9.72916666,3.57986112 L15,3.57986112 C18.5138889,3.57986112 18.953125,3.57986112 20.3586806,3.66770834 C21.7642361,3.75555555 22.4670139,3.93124999 22.9940972,4.19479167 C23.696875,4.45833333 24.2239583,4.80972223 24.7510417,5.33680556 C25.278125,5.8638889 25.6295139,6.39097221 25.8930555,7.09375001 C26.06875,7.62083335 26.3322917,8.32361112 26.4201389,9.72916666 L26.4201389,15 C26.4201389,18.5138889 26.4201389,18.953125 26.3322917,20.3586806 L26.3322917,20.3586806 Z" id="Shape"></path>
                    </g>
                </g>
            </g>
        </g>
    </g>
</svg>