<?xml version="1.0" encoding="UTF-8"?>
<svg width="32px" height="27px" viewBox="0 0 32 27" version="1.1" xmlns="http://www.w3.org/2000/svg" xmlns:xlink="http://www.w3.org/1999/xlink">
    <!-- Generator: Sketch 43.2 (39069) - http://www.bohemiancoding.com/sketch -->
    <title>med-w</title>
    <desc>Created with Sketch.</desc>
    <defs></defs>
    <g id="Page-1" stroke="none" stroke-width="1" fill="none" fill-rule="evenodd">
        <g id="Artboard-2" transform="translate(-564.000000, -249.000000)" stroke="#000000" stroke-width="0.5" fill="#848484" fill-rule="nonzero">
            <g id="Group-2" transform="translate(400.000000, 142.000000)">
                <g id="Group" transform="translate(0.000000, 106.000000)">
                    <g id="med-w" transform="translate(165.000000, 2.000000)">
                        <path d="M20.8283203,0.201442308 C20.3716406,-0.021875 19.9981641,0.203485577 19.9981641,0.703605769 L19.9981641,20.596274 L28.3352344,24.678125 C29.2525781,25.1347356 29.9967188,24.8170673 29.9967188,23.9834135 L29.9967188,4.82920673 C29.9967188,4.74987981 29.9483203,4.68040865 29.8767188,4.640625 L20.8292578,0.214423077 L20.8292578,0.204447115 L20.8283203,0.201442308 L20.8283203,0.201442308 Z" id="Shape"></path>
                        <path d="M9.99855469,15.7014423 L19.5104297,0.569711538 C19.779375,0.142908654 20.3716406,-0.0258413462 20.8264453,0.192548077 L29.8873828,4.62872596 C29.9453906,4.65853365 29.9667188,4.72800481 29.9328516,4.77764423 L19.9971094,20.5981971 L9.99855469,15.7034856 L9.99855469,15.7014423 L9.99855469,15.7014423 Z" id="Shape"></path>
                        <path d="M1.38375,0.471394231 C0.623203125,0.0992788462 0.364804688,0.376081731 0.810820313,1.08677885 L9.99855469,15.7014423 L19.9971094,20.596274 L10.0208203,4.72403846 C10.0062891,4.70120192 9.98601563,4.68233173 9.9628125,4.67043269 L1.38375,0.472355769 L1.38375,0.471394231 L1.38375,0.471394231 Z" id="Shape"></path>
                        <path d="M9.99855469,23.9754808 C9.99855469,24.8091346 9.37640625,25.1862981 8.61480469,24.813101 L0.830273438,21.0021635 C0.373476562,20.7798077 0,20.1883413 0,19.6871394 L0,1.00733173 C0,0.340384615 0.49828125,0.0387019231 1.10789063,0.337379808 L9.94535156,4.66454327 C9.97828125,4.67932692 9.99855469,4.71213942 9.99855469,4.74783654 L9.99855469,23.9754808 Z" id="Shape"></path>
                    </g>
                </g>
            </g>
        </g>
    </g>
</svg>