<?xml version="1.0" encoding="UTF-8"?>
<svg width="30px" height="24px" viewBox="0 0 30 24" version="1.1" xmlns="http://www.w3.org/2000/svg" xmlns:xlink="http://www.w3.org/1999/xlink">
    <!-- Generator: Sketch 43.2 (39069) - http://www.bohemiancoding.com/sketch -->
    <title>twit</title>
    <desc>Created with Sketch.</desc>
    <defs></defs>
    <g id="Page-1" stroke="none" stroke-width="1" fill="none" fill-rule="evenodd">
        <g id="Artboard-2" transform="translate(-510.000000, -251.000000)" fill-rule="nonzero" fill="#000000">
            <g id="Group-2" transform="translate(400.000000, 142.000000)">
                <g id="Group" transform="translate(0.000000, 106.000000)">
                    <g id="twit" transform="translate(110.000000, 3.000000)">
                        <path d="M29.9432893,2.832 C28.8209394,3.312 27.6518249,3.648 26.4359459,3.792 C27.6985895,3.024 28.6806456,1.872 29.1482914,0.432 C27.979177,1.104 26.6697688,1.632 25.2668315,1.92 C24.1444816,0.72 22.554486,0 20.777432,0 C17.3636179,0 14.6512724,2.736 14.6512724,6.048 C14.6512724,6.528 14.6980369,7.008 14.7915661,7.44 C9.64746255,7.2 5.11129853,4.752 2.11836557,1.104 C1.60395521,2.016 1.27660317,3.024 1.27660317,4.128 C1.27660317,6.24 2.35218845,8.064 3.98894866,9.168 C2.96012796,9.12 2.02483641,8.88 1.22983859,8.4 L1.22983859,8.496 C1.22983859,11.424 3.33424458,13.872 6.14011925,14.448 C5.62570889,14.592 5.06453394,14.64 4.50335902,14.64 C4.12924242,14.64 3.70836122,14.592 3.33424458,14.544 C4.12924242,16.944 6.37394213,18.72 9.08628763,18.768 C6.98188164,20.4 4.3163007,21.36 1.46366148,21.36 C0.949251128,21.36 0.48160535,21.312 0.0139595754,21.264 C2.72630508,22.992 5.95306093,24 9.41363967,24 C20.7306675,24 26.9035917,14.784 26.9035917,6.768 L26.9035917,6 C28.0727061,5.136 29.1015268,4.08 29.9432893,2.832 L29.9432893,2.832 Z" id="Shape"></path>
                    </g>
                </g>
            </g>
        </g>
    </g>
</svg>